<mxfile host="app.diagrams.net" agent="Mozilla/5.0 (Windows NT 10.0; Win64; x64) AppleWebKit/537.36 (KHTML, like Gecko) Chrome/133.0.0.0 Safari/537.36 Edg/133.0.0.0" version="26.0.16">
  <diagram name="第 1 页" id="TKeKw9EzAOUDrappQ-Qj">
    <mxGraphModel dx="1706" dy="1664" grid="0" gridSize="10" guides="1" tooltips="1" connect="1" arrows="1" fold="1" page="1" pageScale="1" pageWidth="827" pageHeight="1169" math="0" shadow="0">
      <root>
        <mxCell id="0" />
        <mxCell id="1" parent="0" />
        <mxCell id="pBvGSqmrWmf4MxCJF8c0-1" value="" style="ellipse;whiteSpace=wrap;html=1;aspect=fixed;fillColor=#000000;" vertex="1" parent="1">
          <mxGeometry x="-64.5" y="-286" width="94" height="94" as="geometry" />
        </mxCell>
        <mxCell id="pBvGSqmrWmf4MxCJF8c0-21" value="" style="edgeStyle=none;curved=1;rounded=0;orthogonalLoop=1;jettySize=auto;html=1;fontSize=12;startSize=8;endSize=8;" edge="1" parent="1" source="pBvGSqmrWmf4MxCJF8c0-3" target="pBvGSqmrWmf4MxCJF8c0-5">
          <mxGeometry relative="1" as="geometry" />
        </mxCell>
        <mxCell id="pBvGSqmrWmf4MxCJF8c0-3" value="" style="rhombus;whiteSpace=wrap;html=1;" vertex="1" parent="1">
          <mxGeometry x="-80" y="31" width="127" height="125" as="geometry" />
        </mxCell>
        <mxCell id="pBvGSqmrWmf4MxCJF8c0-5" value="&lt;font style=&quot;font-size: 16px;&quot;&gt;輸入錯誤&lt;/font&gt;&lt;div&gt;&lt;font style=&quot;font-size: 16px;&quot;&gt;(成績範圍 0-100)&lt;/font&gt;&lt;/div&gt;" style="rounded=1;whiteSpace=wrap;html=1;" vertex="1" parent="1">
          <mxGeometry x="168" y="59" width="182" height="60" as="geometry" />
        </mxCell>
        <mxCell id="pBvGSqmrWmf4MxCJF8c0-7" value="&lt;b&gt;Grade A&lt;/b&gt;" style="rounded=1;whiteSpace=wrap;html=1;" vertex="1" parent="1">
          <mxGeometry x="-61.75" y="543" width="120" height="60" as="geometry" />
        </mxCell>
        <mxCell id="pBvGSqmrWmf4MxCJF8c0-15" value="" style="edgeStyle=none;curved=1;rounded=0;orthogonalLoop=1;jettySize=auto;html=1;fontSize=12;startSize=8;endSize=8;" edge="1" parent="1" source="pBvGSqmrWmf4MxCJF8c0-9" target="pBvGSqmrWmf4MxCJF8c0-3">
          <mxGeometry relative="1" as="geometry" />
        </mxCell>
        <mxCell id="pBvGSqmrWmf4MxCJF8c0-9" value="&lt;font style=&quot;font-size: 16px;&quot;&gt;輸入學生成績&lt;/font&gt;" style="rounded=1;whiteSpace=wrap;html=1;" vertex="1" parent="1">
          <mxGeometry x="-77.5" y="-77" width="120" height="60" as="geometry" />
        </mxCell>
        <mxCell id="pBvGSqmrWmf4MxCJF8c0-10" style="edgeStyle=none;curved=1;rounded=0;orthogonalLoop=1;jettySize=auto;html=1;exitX=0.75;exitY=0;exitDx=0;exitDy=0;fontSize=12;startSize=8;endSize=8;" edge="1" parent="1" source="pBvGSqmrWmf4MxCJF8c0-9" target="pBvGSqmrWmf4MxCJF8c0-9">
          <mxGeometry relative="1" as="geometry" />
        </mxCell>
        <mxCell id="pBvGSqmrWmf4MxCJF8c0-12" value="" style="edgeStyle=none;curved=1;rounded=0;orthogonalLoop=1;jettySize=auto;html=1;fontSize=12;startSize=8;endSize=8;" edge="1" parent="1" source="pBvGSqmrWmf4MxCJF8c0-11" target="pBvGSqmrWmf4MxCJF8c0-9">
          <mxGeometry relative="1" as="geometry" />
        </mxCell>
        <mxCell id="pBvGSqmrWmf4MxCJF8c0-11" value="程式開始" style="text;strokeColor=none;fillColor=none;html=1;align=center;verticalAlign=middle;whiteSpace=wrap;rounded=0;fontSize=16;" vertex="1" parent="1">
          <mxGeometry x="-89.5" y="-185" width="144" height="30" as="geometry" />
        </mxCell>
        <mxCell id="pBvGSqmrWmf4MxCJF8c0-25" value="" style="edgeStyle=none;curved=1;rounded=0;orthogonalLoop=1;jettySize=auto;html=1;fontSize=12;startSize=8;endSize=8;" edge="1" parent="1" source="pBvGSqmrWmf4MxCJF8c0-16" target="pBvGSqmrWmf4MxCJF8c0-24">
          <mxGeometry relative="1" as="geometry" />
        </mxCell>
        <mxCell id="pBvGSqmrWmf4MxCJF8c0-16" value="score &amp;gt;= 0 and &amp;lt;=100?" style="text;strokeColor=none;fillColor=none;html=1;align=center;verticalAlign=middle;whiteSpace=wrap;rounded=0;fontSize=16;" vertex="1" parent="1">
          <mxGeometry x="-124.25" y="148" width="222.5" height="44" as="geometry" />
        </mxCell>
        <mxCell id="pBvGSqmrWmf4MxCJF8c0-19" value="[true]" style="text;html=1;align=center;verticalAlign=middle;resizable=0;points=[];autosize=1;strokeColor=none;fillColor=none;fontSize=16;" vertex="1" parent="1">
          <mxGeometry x="-10.5" y="190.5" width="54" height="31" as="geometry" />
        </mxCell>
        <mxCell id="pBvGSqmrWmf4MxCJF8c0-22" value="[false]" style="text;html=1;align=center;verticalAlign=middle;resizable=0;points=[];autosize=1;strokeColor=none;fillColor=none;fontSize=16;" vertex="1" parent="1">
          <mxGeometry x="72" y="51" width="61" height="31" as="geometry" />
        </mxCell>
        <mxCell id="pBvGSqmrWmf4MxCJF8c0-34" value="" style="edgeStyle=none;curved=1;rounded=0;orthogonalLoop=1;jettySize=auto;html=1;fontSize=12;startSize=8;endSize=8;" edge="1" parent="1" source="pBvGSqmrWmf4MxCJF8c0-24">
          <mxGeometry relative="1" as="geometry">
            <mxPoint x="168" y="359.5" as="targetPoint" />
          </mxGeometry>
        </mxCell>
        <mxCell id="pBvGSqmrWmf4MxCJF8c0-24" value="" style="rhombus;whiteSpace=wrap;html=1;" vertex="1" parent="1">
          <mxGeometry x="-77.25" y="297" width="128.5" height="125" as="geometry" />
        </mxCell>
        <mxCell id="pBvGSqmrWmf4MxCJF8c0-29" value="" style="edgeStyle=none;curved=1;rounded=0;orthogonalLoop=1;jettySize=auto;html=1;fontSize=12;startSize=8;endSize=8;" edge="1" parent="1" source="pBvGSqmrWmf4MxCJF8c0-26" target="pBvGSqmrWmf4MxCJF8c0-7">
          <mxGeometry relative="1" as="geometry" />
        </mxCell>
        <mxCell id="pBvGSqmrWmf4MxCJF8c0-26" value="score &amp;gt;= 90?" style="text;strokeColor=none;fillColor=none;html=1;align=center;verticalAlign=middle;whiteSpace=wrap;rounded=0;fontSize=16;" vertex="1" parent="1">
          <mxGeometry x="-113" y="419" width="222.5" height="44" as="geometry" />
        </mxCell>
        <mxCell id="pBvGSqmrWmf4MxCJF8c0-27" value="[false]" style="text;html=1;align=center;verticalAlign=middle;resizable=0;points=[];autosize=1;strokeColor=none;fillColor=none;fontSize=16;" vertex="1" parent="1">
          <mxGeometry x="70" y="324" width="61" height="31" as="geometry" />
        </mxCell>
        <mxCell id="pBvGSqmrWmf4MxCJF8c0-28" value="[true]" style="text;html=1;align=center;verticalAlign=middle;resizable=0;points=[];autosize=1;strokeColor=none;fillColor=none;fontSize=16;" vertex="1" parent="1">
          <mxGeometry x="10" y="478" width="54" height="31" as="geometry" />
        </mxCell>
        <mxCell id="pBvGSqmrWmf4MxCJF8c0-36" value="&lt;b&gt;Grade B&lt;/b&gt;" style="rounded=1;whiteSpace=wrap;html=1;" vertex="1" parent="1">
          <mxGeometry x="182.25" y="546" width="120" height="60" as="geometry" />
        </mxCell>
        <mxCell id="pBvGSqmrWmf4MxCJF8c0-38" value="" style="edgeStyle=none;curved=1;rounded=0;orthogonalLoop=1;jettySize=auto;html=1;fontSize=12;startSize=8;endSize=8;" edge="1" parent="1" source="pBvGSqmrWmf4MxCJF8c0-39">
          <mxGeometry relative="1" as="geometry">
            <mxPoint x="412" y="362.5" as="targetPoint" />
          </mxGeometry>
        </mxCell>
        <mxCell id="pBvGSqmrWmf4MxCJF8c0-39" value="" style="rhombus;whiteSpace=wrap;html=1;" vertex="1" parent="1">
          <mxGeometry x="166.75" y="300" width="128.5" height="125" as="geometry" />
        </mxCell>
        <mxCell id="pBvGSqmrWmf4MxCJF8c0-40" value="" style="edgeStyle=none;curved=1;rounded=0;orthogonalLoop=1;jettySize=auto;html=1;fontSize=12;startSize=8;endSize=8;" edge="1" parent="1" source="pBvGSqmrWmf4MxCJF8c0-41" target="pBvGSqmrWmf4MxCJF8c0-36">
          <mxGeometry relative="1" as="geometry" />
        </mxCell>
        <mxCell id="pBvGSqmrWmf4MxCJF8c0-41" value="score &amp;gt;= 80?" style="text;strokeColor=none;fillColor=none;html=1;align=center;verticalAlign=middle;whiteSpace=wrap;rounded=0;fontSize=16;" vertex="1" parent="1">
          <mxGeometry x="131" y="422" width="222.5" height="44" as="geometry" />
        </mxCell>
        <mxCell id="pBvGSqmrWmf4MxCJF8c0-42" value="[false]" style="text;html=1;align=center;verticalAlign=middle;resizable=0;points=[];autosize=1;strokeColor=none;fillColor=none;fontSize=16;" vertex="1" parent="1">
          <mxGeometry x="314" y="327" width="61" height="31" as="geometry" />
        </mxCell>
        <mxCell id="pBvGSqmrWmf4MxCJF8c0-43" value="[true]" style="text;html=1;align=center;verticalAlign=middle;resizable=0;points=[];autosize=1;strokeColor=none;fillColor=none;fontSize=16;" vertex="1" parent="1">
          <mxGeometry x="254" y="481" width="54" height="31" as="geometry" />
        </mxCell>
        <mxCell id="pBvGSqmrWmf4MxCJF8c0-46" value="&lt;b&gt;Grade C&lt;/b&gt;" style="rounded=1;whiteSpace=wrap;html=1;" vertex="1" parent="1">
          <mxGeometry x="426.5" y="546" width="120" height="60" as="geometry" />
        </mxCell>
        <mxCell id="pBvGSqmrWmf4MxCJF8c0-47" value="&lt;b&gt;Grade D&lt;/b&gt;" style="rounded=1;whiteSpace=wrap;html=1;" vertex="1" parent="1">
          <mxGeometry x="656.25" y="543" width="120" height="60" as="geometry" />
        </mxCell>
        <mxCell id="pBvGSqmrWmf4MxCJF8c0-48" value="" style="edgeStyle=none;curved=1;rounded=0;orthogonalLoop=1;jettySize=auto;html=1;fontSize=12;startSize=8;endSize=8;" edge="1" parent="1" source="pBvGSqmrWmf4MxCJF8c0-49" target="pBvGSqmrWmf4MxCJF8c0-54">
          <mxGeometry relative="1" as="geometry" />
        </mxCell>
        <mxCell id="pBvGSqmrWmf4MxCJF8c0-49" value="" style="rhombus;whiteSpace=wrap;html=1;" vertex="1" parent="1">
          <mxGeometry x="411" y="300" width="128.5" height="125" as="geometry" />
        </mxCell>
        <mxCell id="pBvGSqmrWmf4MxCJF8c0-50" value="" style="edgeStyle=none;curved=1;rounded=0;orthogonalLoop=1;jettySize=auto;html=1;fontSize=12;startSize=8;endSize=8;" edge="1" parent="1" target="pBvGSqmrWmf4MxCJF8c0-46">
          <mxGeometry relative="1" as="geometry">
            <mxPoint x="486.25" y="466" as="sourcePoint" />
          </mxGeometry>
        </mxCell>
        <mxCell id="pBvGSqmrWmf4MxCJF8c0-51" value="[false]" style="text;html=1;align=center;verticalAlign=middle;resizable=0;points=[];autosize=1;strokeColor=none;fillColor=none;fontSize=16;" vertex="1" parent="1">
          <mxGeometry x="558.25" y="327" width="61" height="31" as="geometry" />
        </mxCell>
        <mxCell id="pBvGSqmrWmf4MxCJF8c0-52" value="[true]" style="text;html=1;align=center;verticalAlign=middle;resizable=0;points=[];autosize=1;strokeColor=none;fillColor=none;fontSize=16;" vertex="1" parent="1">
          <mxGeometry x="498.25" y="481" width="54" height="31" as="geometry" />
        </mxCell>
        <mxCell id="pBvGSqmrWmf4MxCJF8c0-54" value="" style="rhombus;whiteSpace=wrap;html=1;" vertex="1" parent="1">
          <mxGeometry x="656.25" y="300" width="128.5" height="125" as="geometry" />
        </mxCell>
        <mxCell id="pBvGSqmrWmf4MxCJF8c0-55" value="" style="edgeStyle=none;curved=1;rounded=0;orthogonalLoop=1;jettySize=auto;html=1;fontSize=12;startSize=8;endSize=8;" edge="1" parent="1">
          <mxGeometry relative="1" as="geometry">
            <mxPoint x="718.75" y="463" as="sourcePoint" />
            <mxPoint x="718.5" y="543" as="targetPoint" />
          </mxGeometry>
        </mxCell>
        <mxCell id="pBvGSqmrWmf4MxCJF8c0-56" value="[true]" style="text;html=1;align=center;verticalAlign=middle;resizable=0;points=[];autosize=1;strokeColor=none;fillColor=none;fontSize=16;" vertex="1" parent="1">
          <mxGeometry x="730.75" y="478" width="54" height="31" as="geometry" />
        </mxCell>
        <mxCell id="pBvGSqmrWmf4MxCJF8c0-57" value="score &amp;gt;= 70?" style="text;strokeColor=none;fillColor=none;html=1;align=center;verticalAlign=middle;whiteSpace=wrap;rounded=0;fontSize=16;" vertex="1" parent="1">
          <mxGeometry x="375" y="419" width="222.5" height="44" as="geometry" />
        </mxCell>
        <mxCell id="pBvGSqmrWmf4MxCJF8c0-58" value="score &amp;gt;= 60?" style="text;strokeColor=none;fillColor=none;html=1;align=center;verticalAlign=middle;whiteSpace=wrap;rounded=0;fontSize=16;" vertex="1" parent="1">
          <mxGeometry x="641" y="422" width="222.5" height="44" as="geometry" />
        </mxCell>
        <mxCell id="pBvGSqmrWmf4MxCJF8c0-59" value="" style="edgeStyle=none;curved=1;rounded=0;orthogonalLoop=1;jettySize=auto;html=1;fontSize=12;startSize=8;endSize=8;" edge="1" parent="1">
          <mxGeometry relative="1" as="geometry">
            <mxPoint x="787" y="370" as="sourcePoint" />
            <mxPoint x="903" y="370" as="targetPoint" />
          </mxGeometry>
        </mxCell>
        <mxCell id="pBvGSqmrWmf4MxCJF8c0-60" value="[false]" style="text;html=1;align=center;verticalAlign=middle;resizable=0;points=[];autosize=1;strokeColor=none;fillColor=none;fontSize=16;" vertex="1" parent="1">
          <mxGeometry x="805.25" y="334" width="61" height="31" as="geometry" />
        </mxCell>
        <mxCell id="pBvGSqmrWmf4MxCJF8c0-61" value="&lt;b&gt;不及格&lt;/b&gt;" style="rounded=1;whiteSpace=wrap;html=1;" vertex="1" parent="1">
          <mxGeometry x="903" y="339" width="120" height="60" as="geometry" />
        </mxCell>
      </root>
    </mxGraphModel>
  </diagram>
</mxfile>
